<svg xmlns="http://www.w3.org/2000/svg" viewBox="0 0 64 64" width="64" height="64">
  <defs>
    <linearGradient id="g" x1="0" x2="1" y1="0" y2="1">
      <stop offset="0" stop-color="#6A0DAD"/>
      <stop offset="1" stop-color="#00CED1"/>
    </linearGradient>
  </defs>
  <rect width="64" height="64" rx="12" fill="url(#g)"/>
  <path d="M32 10c8 0 14 6 14 14v8c0 8-6 14-14 18-8-4-14-10-14-18v-8c0-8 6-14 14-14z" fill="#fff" opacity="0.12"/>
  <path d="M44 24c0-6-6-12-12-12s-12 6-12 12v6c0 6 6 12 12 14 6-2 12-8 12-14v-6z" fill="#fff"/>
  <path d="M26 31l3.5 3.5L38 26" stroke="#6A0DAD" stroke-width="3" stroke-linecap="round" stroke-linejoin="round" fill="none"/>
</svg>